STARTFONT 2.1
FONT -Monotype-Rockwell-Bold-R-Normal--12-120-72-72-P-65-iso8859-1
SIZE 12 72 72
FONTBOUNDINGBOX 14 16 -1 -3

STARTPROPERTIES 22
FOUNDRY "Monotype"
FAMILY_NAME "Rockwell"
WEIGHT_NAME "Bold"
SLANT "R"
SETWIDTH_NAME "Normal"
ADD_STYLE_NAME ""
PIXEL_SIZE 12
POINT_SIZE 120
RESOLUTION_X 72
RESOLUTION_Y 72
SPACING "P"
AVERAGE_WIDTH 65
CHARSET_REGISTRY "iso8859"
CHARSET_ENCODING "1"
COPYRIGHT "Copyright (c) 1996 Monotype Typography Ltd."
CAP_HEIGHT 10
X_HEIGHT 7
WEIGHT 10
QUAD_WIDTH 8
DEFAULT_CHAR 32
FONT_DESCENT 3
FONT_ASCENT 13
ENDPROPERTIES

CHARS 191

STARTCHAR space
ENCODING 32
SWIDTH 250 0
DWIDTH 4 0
BBX 0 0 0 0
BITMAP
ENDCHAR

STARTCHAR exclam
ENCODING 33
SWIDTH 354 0
DWIDTH 5 0
BBX 2 9 1 0
BITMAP
C0
C0
C0
C0
C0
C0
00
C0
C0
ENDCHAR

STARTCHAR quotedbl
ENCODING 34
SWIDTH 552 0
DWIDTH 7 0
BBX 4 4 1 5
BITMAP
90
90
90
90
ENDCHAR

STARTCHAR numbersign
ENCODING 35
SWIDTH 668 0
DWIDTH 9 0
BBX 8 9 0 0
BITMAP
12
12
FF
24
24
24
FF
48
48
ENDCHAR

STARTCHAR dollar
ENCODING 36
SWIDTH 563 0
DWIDTH 7 0
BBX 5 11 1 -1
BITMAP
10
70
D8
D8
E0
70
38
D8
D8
70
20
ENDCHAR

STARTCHAR percent
ENCODING 37
SWIDTH 927 0
DWIDTH 12 0
BBX 12 9 0 0
BITMAP
70C0
D980
D900
DA00
76E0
0DB0
09B0
19B0
30E0
ENDCHAR

STARTCHAR ampersand
ENCODING 38
SWIDTH 802 0
DWIDTH 10 0
BBX 10 9 0 0
BITMAP
1C00
3600
3600
1C00
79C0
CD80
C700
CF00
79C0
ENDCHAR

STARTCHAR quoteright
ENCODING 39
SWIDTH 354 0
DWIDTH 5 0
BBX 2 4 1 5
BITMAP
C0
C0
40
80
ENDCHAR

STARTCHAR parenleft
ENCODING 40
SWIDTH 344 0
DWIDTH 4 0
BBX 4 12 0 -3
BITMAP
10
20
60
60
C0
C0
C0
C0
60
60
20
10
ENDCHAR

STARTCHAR parenright
ENCODING 41
SWIDTH 344 0
DWIDTH 4 0
BBX 4 12 0 -3
BITMAP
80
40
60
60
30
30
30
30
60
60
40
80
ENDCHAR

STARTCHAR asterisk
ENCODING 42
SWIDTH 573 0
DWIDTH 7 0
BBX 7 7 0 2
BITMAP
30
30
D6
FE
38
6C
6C
ENDCHAR

STARTCHAR plus
ENCODING 43
SWIDTH 668 0
DWIDTH 9 0
BBX 7 7 1 1
BITMAP
10
10
10
FE
10
10
10
ENDCHAR

STARTCHAR comma
ENCODING 44
SWIDTH 354 0
DWIDTH 5 0
BBX 2 4 1 -2
BITMAP
C0
C0
40
80
ENDCHAR

STARTCHAR minus
ENCODING 45
SWIDTH 668 0
DWIDTH 9 0
BBX 7 1 1 4
BITMAP
FE
ENDCHAR

STARTCHAR period
ENCODING 46
SWIDTH 354 0
DWIDTH 5 0
BBX 2 2 1 0
BITMAP
C0
C0
ENDCHAR

STARTCHAR slash
ENCODING 47
SWIDTH 508 0
DWIDTH 7 0
BBX 6 9 0 0
BITMAP
0C
0C
18
18
30
30
60
60
C0
ENDCHAR

STARTCHAR zero
ENCODING 48
SWIDTH 552 0
DWIDTH 7 0
BBX 5 9 1 0
BITMAP
70
D8
D8
D8
D8
D8
D8
D8
70
ENDCHAR

STARTCHAR one
ENCODING 49
SWIDTH 552 0
DWIDTH 7 0
BBX 4 9 2 0
BITMAP
E0
60
60
60
60
60
60
60
F0
ENDCHAR

STARTCHAR two
ENCODING 50
SWIDTH 552 0
DWIDTH 7 0
BBX 5 9 1 0
BITMAP
F0
D8
D8
38
30
60
60
C8
F8
ENDCHAR

STARTCHAR three
ENCODING 51
SWIDTH 552 0
DWIDTH 7 0
BBX 5 9 1 0
BITMAP
70
D8
D8
18
70
18
D8
D8
70
ENDCHAR

STARTCHAR four
ENCODING 52
SWIDTH 552 0
DWIDTH 7 0
BBX 6 9 0 0
BITMAP
18
18
38
78
58
D8
FC
18
3C
ENDCHAR

STARTCHAR five
ENCODING 53
SWIDTH 552 0
DWIDTH 7 0
BBX 5 9 1 0
BITMAP
F8
D8
C0
F0
D8
18
D8
D8
70
ENDCHAR

STARTCHAR six
ENCODING 54
SWIDTH 552 0
DWIDTH 7 0
BBX 5 9 1 0
BITMAP
70
D8
D8
C0
F0
D8
D8
D8
70
ENDCHAR

STARTCHAR seven
ENCODING 55
SWIDTH 552 0
DWIDTH 7 0
BBX 5 9 1 0
BITMAP
F8
D8
D8
30
30
30
60
60
F0
ENDCHAR

STARTCHAR eight
ENCODING 56
SWIDTH 552 0
DWIDTH 7 0
BBX 5 9 1 0
BITMAP
70
D8
D8
D8
70
D8
D8
D8
70
ENDCHAR

STARTCHAR nine
ENCODING 57
SWIDTH 552 0
DWIDTH 7 0
BBX 5 9 1 0
BITMAP
70
D8
D8
D8
78
18
D8
D8
70
ENDCHAR

STARTCHAR colon
ENCODING 58
SWIDTH 354 0
DWIDTH 5 0
BBX 2 6 1 0
BITMAP
C0
C0
00
00
C0
C0
ENDCHAR

STARTCHAR semicolon
ENCODING 59
SWIDTH 354 0
DWIDTH 5 0
BBX 2 8 1 -2
BITMAP
C0
C0
00
00
C0
C0
40
80
ENDCHAR

STARTCHAR less
ENCODING 60
SWIDTH 667 0
DWIDTH 9 0
BBX 7 7 1 1
BITMAP
06
1C
70
C0
70
1C
06
ENDCHAR

STARTCHAR equal
ENCODING 61
SWIDTH 667 0
DWIDTH 9 0
BBX 7 4 1 2
BITMAP
FE
00
00
FE
ENDCHAR

STARTCHAR greater
ENCODING 62
SWIDTH 667 0
DWIDTH 9 0
BBX 7 7 1 1
BITMAP
C0
70
1C
06
1C
70
C0
ENDCHAR

STARTCHAR question
ENCODING 63
SWIDTH 563 0
DWIDTH 7 0
BBX 6 9 0 0
BITMAP
78
CC
CC
18
30
30
00
30
30
ENDCHAR

STARTCHAR at
ENCODING 64
SWIDTH 979 0
DWIDTH 13 0
BBX 12 12 0 -3
BITMAP
0FC0
3020
66D0
4D90
8D90
9990
9B10
9B20
5DC0
4010
3060
0F80
ENDCHAR

STARTCHAR A
ENCODING 65
SWIDTH 698 0
DWIDTH 9 0
BBX 9 9 0 0
BITMAP
3E00
1C00
1400
3600
3600
3E00
6300
6300
F780
ENDCHAR

STARTCHAR B
ENCODING 66
SWIDTH 698 0
DWIDTH 9 0
BBX 7 9 1 0
BITMAP
FC
66
66
66
7C
66
66
66
FC
ENDCHAR

STARTCHAR C
ENCODING 67
SWIDTH 781 0
DWIDTH 10 0
BBX 8 9 1 0
BITMAP
3F
63
C1
C0
C0
C0
C3
66
3C
ENDCHAR

STARTCHAR D
ENCODING 68
SWIDTH 802 0
DWIDTH 10 0
BBX 9 9 0 0
BITMAP
FE00
6300
6180
6180
6180
6180
6180
6300
FE00
ENDCHAR

STARTCHAR E
ENCODING 69
SWIDTH 667 0
DWIDTH 9 0
BBX 8 9 0 0
BITMAP
FF
63
63
60
7C
60
63
63
FF
ENDCHAR

STARTCHAR F
ENCODING 70
SWIDTH 646 0
DWIDTH 8 0
BBX 7 9 0 0
BITMAP
FE
66
66
60
78
60
60
60
F0
ENDCHAR

STARTCHAR G
ENCODING 71
SWIDTH 844 0
DWIDTH 11 0
BBX 8 9 1 0
BITMAP
3F
63
C1
C0
C0
C7
C3
63
3E
ENDCHAR

STARTCHAR H
ENCODING 72
SWIDTH 760 0
DWIDTH 10 0
BBX 10 9 0 0
BITMAP
F3C0
6180
6180
6180
7F80
6180
6180
6180
F3C0
ENDCHAR

STARTCHAR I
ENCODING 73
SWIDTH 427 0
DWIDTH 6 0
BBX 4 9 1 0
BITMAP
F0
60
60
60
60
60
60
60
F0
ENDCHAR

STARTCHAR J
ENCODING 74
SWIDTH 406 0
DWIDTH 5 0
BBX 4 12 0 -3
BITMAP
F0
60
60
60
60
60
60
60
60
60
60
C0
ENDCHAR

STARTCHAR K
ENCODING 75
SWIDTH 781 0
DWIDTH 10 0
BBX 10 9 0 0
BITMAP
F780
6300
6600
6C00
7800
6C00
6600
6300
F7C0
ENDCHAR

STARTCHAR L
ENCODING 76
SWIDTH 646 0
DWIDTH 8 0
BBX 7 9 0 0
BITMAP
F8
60
60
60
60
66
66
66
FE
ENDCHAR

STARTCHAR M
ENCODING 77
SWIDTH 1042 0
DWIDTH 14 0
BBX 13 9 0 0
BITMAP
F8F8
78F0
6DB0
6DB0
6DB0
6730
6730
6230
F278
ENDCHAR

STARTCHAR N
ENCODING 78
SWIDTH 792 0
DWIDTH 10 0
BBX 10 9 0 0
BITMAP
F3C0
7180
7980
6980
6D80
6580
6780
6380
F180
ENDCHAR

STARTCHAR O
ENCODING 79
SWIDTH 854 0
DWIDTH 11 0
BBX 9 9 1 0
BITMAP
3E00
6300
C180
C180
C180
C180
C180
6300
3E00
ENDCHAR

STARTCHAR P
ENCODING 80
SWIDTH 667 0
DWIDTH 9 0
BBX 8 9 0 0
BITMAP
FE
63
63
63
7E
60
60
60
F8
ENDCHAR

STARTCHAR Q
ENCODING 81
SWIDTH 854 0
DWIDTH 11 0
BBX 9 11 1 -2
BITMAP
3E00
6300
C180
C180
C180
C180
C180
6300
3E00
7C00
0700
ENDCHAR

STARTCHAR R
ENCODING 82
SWIDTH 729 0
DWIDTH 9 0
BBX 9 9 0 0
BITMAP
FE00
6300
6300
6300
7E00
6C00
6600
6300
F380
ENDCHAR

STARTCHAR S
ENCODING 83
SWIDTH 531 0
DWIDTH 7 0
BBX 5 9 1 0
BITMAP
78
D8
C8
E0
70
38
98
D8
F0
ENDCHAR

STARTCHAR T
ENCODING 84
SWIDTH 677 0
DWIDTH 9 0
BBX 8 9 0 0
BITMAP
FF
DB
DB
DB
18
18
18
18
3C
ENDCHAR

STARTCHAR U
ENCODING 85
SWIDTH 677 0
DWIDTH 9 0
BBX 9 9 0 0
BITMAP
F780
6300
6300
6300
6300
6300
6300
6300
3E00
ENDCHAR

STARTCHAR V
ENCODING 86
SWIDTH 698 0
DWIDTH 9 0
BBX 9 9 0 0
BITMAP
F780
6300
6300
3600
3600
3600
1C00
1C00
0800
ENDCHAR

STARTCHAR W
ENCODING 87
SWIDTH 990 0
DWIDTH 13 0
BBX 13 9 0 0
BITMAP
F778
6230
6730
3760
3760
3560
1DC0
1DC0
0880
ENDCHAR

STARTCHAR X
ENCODING 88
SWIDTH 740 0
DWIDTH 10 0
BBX 10 9 0 0
BITMAP
F3C0
6180
3300
1E00
0C00
1E00
3300
6180
F3C0
ENDCHAR

STARTCHAR Y
ENCODING 89
SWIDTH 698 0
DWIDTH 9 0
BBX 10 9 -1 0
BITMAP
F3C0
6180
3300
1E00
0C00
0C00
0C00
0C00
1E00
ENDCHAR

STARTCHAR Z
ENCODING 90
SWIDTH 646 0
DWIDTH 8 0
BBX 6 9 1 0
BITMAP
FC
CC
D8
18
30
60
6C
CC
FC
ENDCHAR

STARTCHAR bracketleft
ENCODING 91
SWIDTH 417 0
DWIDTH 5 0
BBX 4 12 1 -3
BITMAP
F0
C0
C0
C0
C0
C0
C0
C0
C0
C0
C0
F0
ENDCHAR

STARTCHAR backslash
ENCODING 92
SWIDTH 508 0
DWIDTH 7 0
BBX 6 9 0 0
BITMAP
C0
60
60
30
30
18
18
0C
0C
ENDCHAR

STARTCHAR bracketright
ENCODING 93
SWIDTH 417 0
DWIDTH 5 0
BBX 4 12 0 -3
BITMAP
F0
30
30
30
30
30
30
30
30
30
30
F0
ENDCHAR

STARTCHAR asciicircum
ENCODING 94
SWIDTH 583 0
DWIDTH 8 0
BBX 7 5 0 4
BITMAP
10
38
6C
C6
82
ENDCHAR

STARTCHAR underscore
ENCODING 95
SWIDTH 500 0
DWIDTH 7 0
BBX 7 1 0 -2
BITMAP
FE
ENDCHAR

STARTCHAR quoteleft
ENCODING 96
SWIDTH 354 0
DWIDTH 5 0
BBX 2 4 1 5
BITMAP
40
80
C0
C0
ENDCHAR

STARTCHAR a
ENCODING 97
SWIDTH 583 0
DWIDTH 8 0
BBX 6 6 1 0
BITMAP
70
98
78
D8
D8
6C
ENDCHAR

STARTCHAR b
ENCODING 98
SWIDTH 625 0
DWIDTH 8 0
BBX 7 9 0 0
BITMAP
E0
60
60
6C
76
66
66
76
EC
ENDCHAR

STARTCHAR c
ENCODING 99
SWIDTH 563 0
DWIDTH 7 0
BBX 5 6 1 0
BITMAP
78
D8
C0
C0
D8
70
ENDCHAR

STARTCHAR d
ENCODING 100
SWIDTH 625 0
DWIDTH 8 0
BBX 7 9 1 0
BITMAP
1C
0C
0C
6C
DC
CC
CC
DC
6E
ENDCHAR

STARTCHAR e
ENCODING 101
SWIDTH 573 0
DWIDTH 7 0
BBX 5 6 1 0
BITMAP
70
D8
F8
C0
D8
70
ENDCHAR

STARTCHAR f
ENCODING 102
SWIDTH 354 0
DWIDTH 5 0
BBX 5 9 0 0
BITMAP
30
68
60
F0
60
60
60
60
F0
ENDCHAR

STARTCHAR g
ENCODING 103
SWIDTH 625 0
DWIDTH 8 0
BBX 7 9 1 -3
BITMAP
6E
DC
CC
CC
DC
6C
0C
CC
78
ENDCHAR

STARTCHAR h
ENCODING 104
SWIDTH 625 0
DWIDTH 8 0
BBX 8 9 0 0
BITMAP
E0
60
60
6E
76
66
66
66
F7
ENDCHAR

STARTCHAR i
ENCODING 105
SWIDTH 354 0
DWIDTH 5 0
BBX 4 9 0 0
BITMAP
60
60
00
E0
60
60
60
60
F0
ENDCHAR

STARTCHAR j
ENCODING 106
SWIDTH 354 0
DWIDTH 5 0
BBX 3 12 0 -3
BITMAP
60
60
00
E0
60
60
60
60
60
60
60
C0
ENDCHAR

STARTCHAR k
ENCODING 107
SWIDTH 646 0
DWIDTH 8 0
BBX 8 9 0 0
BITMAP
E0
60
60
6E
6C
78
6C
66
F7
ENDCHAR

STARTCHAR l
ENCODING 108
SWIDTH 354 0
DWIDTH 5 0
BBX 4 9 0 0
BITMAP
E0
60
60
60
60
60
60
60
F0
ENDCHAR

STARTCHAR m
ENCODING 109
SWIDTH 990 0
DWIDTH 13 0
BBX 12 6 0 0
BITMAP
EEE0
7760
6660
6660
6660
F770
ENDCHAR

STARTCHAR n
ENCODING 110
SWIDTH 625 0
DWIDTH 8 0
BBX 8 6 0 0
BITMAP
EE
76
66
66
66
F7
ENDCHAR

STARTCHAR o
ENCODING 111
SWIDTH 573 0
DWIDTH 7 0
BBX 5 6 1 0
BITMAP
70
D8
D8
D8
D8
70
ENDCHAR

STARTCHAR p
ENCODING 112
SWIDTH 625 0
DWIDTH 8 0
BBX 7 9 0 -3
BITMAP
EC
76
66
66
76
6C
60
60
F0
ENDCHAR

STARTCHAR q
ENCODING 113
SWIDTH 625 0
DWIDTH 8 0
BBX 7 9 1 -3
BITMAP
76
CC
CC
CC
DC
6C
0C
0C
1E
ENDCHAR

STARTCHAR r
ENCODING 114
SWIDTH 448 0
DWIDTH 6 0
BBX 6 6 0 0
BITMAP
EC
7C
70
60
60
F0
ENDCHAR

STARTCHAR s
ENCODING 115
SWIDTH 510 0
DWIDTH 7 0
BBX 5 6 1 0
BITMAP
78
C8
F0
78
98
F0
ENDCHAR

STARTCHAR t
ENCODING 116
SWIDTH 344 0
DWIDTH 4 0
BBX 4 9 0 0
BITMAP
20
60
60
F0
60
60
60
60
30
ENDCHAR

STARTCHAR u
ENCODING 117
SWIDTH 625 0
DWIDTH 8 0
BBX 8 6 0 0
BITMAP
EE
66
66
66
6E
77
ENDCHAR

STARTCHAR v
ENCODING 118
SWIDTH 573 0
DWIDTH 7 0
BBX 7 6 0 0
BITMAP
EE
6C
6C
38
38
10
ENDCHAR

STARTCHAR w
ENCODING 119
SWIDTH 813 0
DWIDTH 11 0
BBX 11 6 0 0
BITMAP
E4E0
6EC0
6EC0
3B80
3B80
1100
ENDCHAR

STARTCHAR x
ENCODING 120
SWIDTH 563 0
DWIDTH 7 0
BBX 7 6 0 0
BITMAP
EE
6C
38
38
6C
EE
ENDCHAR

STARTCHAR y
ENCODING 121
SWIDTH 594 0
DWIDTH 8 0
BBX 7 9 0 -3
BITMAP
EE
6C
6C
28
38
30
30
60
E0
ENDCHAR

STARTCHAR z
ENCODING 122
SWIDTH 531 0
DWIDTH 7 0
BBX 5 6 1 0
BITMAP
F8
D8
30
60
D8
F8
ENDCHAR

STARTCHAR braceleft
ENCODING 123
SWIDTH 385 0
DWIDTH 5 0
BBX 5 12 0 -3
BITMAP
18
20
20
20
20
C0
20
20
20
20
20
18
ENDCHAR

STARTCHAR bar
ENCODING 124
SWIDTH 611 0
DWIDTH 8 0
BBX 1 12 3 -3
BITMAP
80
80
80
80
80
80
80
80
80
80
80
80
ENDCHAR

STARTCHAR braceright
ENCODING 125
SWIDTH 385 0
DWIDTH 5 0
BBX 5 12 0 -3
BITMAP
C0
20
20
20
20
18
20
20
20
20
20
C0
ENDCHAR

STARTCHAR asciitilde
ENCODING 126
SWIDTH 583 0
DWIDTH 8 0
BBX 8 2 0 4
BITMAP
71
8E
ENDCHAR

STARTCHAR space
ENCODING 160
SWIDTH 250 0
DWIDTH 3 0
BBX 0 0 0 0
BITMAP
ENDCHAR

STARTCHAR exclamdown
ENCODING 161
SWIDTH 354 0
DWIDTH 5 0
BBX 2 9 1 -3
BITMAP
C0
C0
00
C0
C0
C0
C0
C0
C0
ENDCHAR

STARTCHAR cent
ENCODING 162
SWIDTH 563 0
DWIDTH 7 0
BBX 5 10 1 -2
BITMAP
10
10
78
D8
C0
C0
D8
70
40
40
ENDCHAR

STARTCHAR sterling
ENCODING 163
SWIDTH 573 0
DWIDTH 7 0
BBX 7 9 0 0
BITMAP
3C
64
60
30
F8
10
72
BA
DC
ENDCHAR

STARTCHAR currency
ENCODING 164
SWIDTH 667 0
DWIDTH 9 0
BBX 7 7 1 1
BITMAP
D6
FE
6C
C6
6C
FE
D6
ENDCHAR

STARTCHAR yen
ENCODING 165
SWIDTH 698 0
DWIDTH 9 0
BBX 10 9 -1 0
BITMAP
F3C0
6180
3300
7F80
0C00
7F80
0C00
0C00
1E00
ENDCHAR

STARTCHAR brokenbar
ENCODING 166
SWIDTH 611 0
DWIDTH 8 0
BBX 1 12 3 -3
BITMAP
80
80
80
80
80
00
00
80
80
80
80
80
ENDCHAR

STARTCHAR section
ENCODING 167
SWIDTH 521 0
DWIDTH 7 0
BBX 6 12 0 -3
BITMAP
38
6C
60
30
78
CC
CC
78
30
18
D8
70
ENDCHAR

STARTCHAR dieresis
ENCODING 168
SWIDTH 333 0
DWIDTH 4 0
BBX 5 2 0 7
BITMAP
D8
D8
ENDCHAR

STARTCHAR copyright
ENCODING 169
SWIDTH 740 0
DWIDTH 10 0
BBX 9 9 0 0
BITMAP
3E00
4100
9C80
B480
B080
B480
9C80
4100
3E00
ENDCHAR

STARTCHAR ordfeminine
ENCODING 170
SWIDTH 396 0
DWIDTH 5 0
BBX 5 4 0 5
BITMAP
E0
30
F0
D8
ENDCHAR

STARTCHAR guillemotleft
ENCODING 171
SWIDTH 542 0
DWIDTH 7 0
BBX 8 6 0 0
BITMAP
33
66
CC
CC
66
33
ENDCHAR

STARTCHAR logicalnot
ENCODING 172
SWIDTH 668 0
DWIDTH 9 0
BBX 6 4 1 2
BITMAP
FC
04
04
04
ENDCHAR

STARTCHAR hyphen
ENCODING 173
SWIDTH 344 0
DWIDTH 4 0
BBX 4 1 0 3
BITMAP
F0
ENDCHAR

STARTCHAR registered
ENCODING 174
SWIDTH 740 0
DWIDTH 10 0
BBX 9 9 0 0
BITMAP
3E00
4100
FC80
B680
BC80
B680
F680
4100
3E00
ENDCHAR

STARTCHAR macron
ENCODING 175
SWIDTH 333 0
DWIDTH 4 0
BBX 4 1 0 7
BITMAP
F0
ENDCHAR

STARTCHAR degree
ENCODING 176
SWIDTH 396 0
DWIDTH 5 0
BBX 5 5 0 4
BITMAP
70
88
88
88
70
ENDCHAR

STARTCHAR plusminus
ENCODING 177
SWIDTH 668 0
DWIDTH 9 0
BBX 7 9 1 0
BITMAP
10
10
10
FE
10
10
10
00
FE
ENDCHAR

STARTCHAR twosuperior
ENCODING 178
SWIDTH 333 0
DWIDTH 4 0
BBX 4 5 0 4
BITMAP
60
B0
60
D0
F0
ENDCHAR

STARTCHAR threesuperior
ENCODING 179
SWIDTH 333 0
DWIDTH 4 0
BBX 4 5 0 4
BITMAP
F0
20
70
30
E0
ENDCHAR

STARTCHAR acute
ENCODING 180
SWIDTH 333 0
DWIDTH 4 0
BBX 4 3 0 6
BITMAP
30
60
80
ENDCHAR

STARTCHAR mu
ENCODING 181
SWIDTH 615 0
DWIDTH 8 0
BBX 6 9 1 -3
BITMAP
CC
CC
CC
CC
CC
F4
C0
C0
C0
ENDCHAR

STARTCHAR paragraph
ENCODING 182
SWIDTH 552 0
DWIDTH 7 0
BBX 6 11 0 -2
BITMAP
3C
68
E8
E8
E8
28
28
28
28
28
28
ENDCHAR

STARTCHAR periodcentered
ENCODING 183
SWIDTH 365 0
DWIDTH 5 0
BBX 2 2 1 4
BITMAP
C0
C0
ENDCHAR

STARTCHAR cedilla
ENCODING 184
SWIDTH 333 0
DWIDTH 4 0
BBX 3 3 0 -3
BITMAP
40
60
C0
ENDCHAR

STARTCHAR onesuperior
ENCODING 185
SWIDTH 333 0
DWIDTH 4 0
BBX 4 5 0 4
BITMAP
E0
60
60
60
F0
ENDCHAR

STARTCHAR ordmasculine
ENCODING 186
SWIDTH 375 0
DWIDTH 5 0
BBX 5 5 0 4
BITMAP
70
D8
D8
D8
70
ENDCHAR

STARTCHAR guillemotright
ENCODING 187
SWIDTH 542 0
DWIDTH 7 0
BBX 8 6 -1 0
BITMAP
CC
66
33
33
66
CC
ENDCHAR

STARTCHAR onequarter
ENCODING 188
SWIDTH 927 0
DWIDTH 12 0
BBX 11 9 0 0
BITMAP
E060
60C0
6180
6300
F640
0CC0
19C0
33E0
60C0
ENDCHAR

STARTCHAR onehalf
ENCODING 189
SWIDTH 927 0
DWIDTH 12 0
BBX 10 9 1 0
BITMAP
C180
C300
C600
CC00
D980
1AC0
3180
6340
C3C0
ENDCHAR

STARTCHAR threequarters
ENCODING 190
SWIDTH 927 0
DWIDTH 12 0
BBX 10 9 1 0
BITMAP
F0C0
2180
7300
3600
E440
0CC0
19C0
33C0
60C0
ENDCHAR

STARTCHAR questiondown
ENCODING 191
SWIDTH 563 0
DWIDTH 7 0
BBX 6 9 1 -3
BITMAP
30
30
00
30
30
60
CC
CC
78
ENDCHAR

STARTCHAR Agrave
ENCODING 192
SWIDTH 698 0
DWIDTH 9 0
BBX 9 13 0 0
BITMAP
3000
1800
0400
0000
3E00
1C00
1400
3600
3600
3E00
6300
6300
F780
ENDCHAR

STARTCHAR Aacute
ENCODING 193
SWIDTH 698 0
DWIDTH 9 0
BBX 9 13 0 0
BITMAP
0600
0C00
1000
0000
3E00
1C00
1400
3600
3600
3E00
6300
6300
F780
ENDCHAR

STARTCHAR Acircumflex
ENCODING 194
SWIDTH 698 0
DWIDTH 9 0
BBX 9 13 0 0
BITMAP
0800
1C00
3600
0000
3E00
1C00
1400
3600
3600
3E00
6300
6300
F780
ENDCHAR

STARTCHAR Atilde
ENCODING 195
SWIDTH 698 0
DWIDTH 9 0
BBX 9 12 0 0
BITMAP
1D00
2E00
0000
3E00
1C00
1400
3600
3600
3E00
6300
6300
F780
ENDCHAR

STARTCHAR Adieresis
ENCODING 196
SWIDTH 698 0
DWIDTH 9 0
BBX 9 12 0 0
BITMAP
3600
3600
0000
3E00
1C00
1400
3600
3600
3E00
6300
6300
F780
ENDCHAR

STARTCHAR Aring
ENCODING 197
SWIDTH 698 0
DWIDTH 9 0
BBX 9 13 0 0
BITMAP
0800
1400
0800
0000
3E00
1C00
1400
3600
3600
3E00
6300
6300
F780
ENDCHAR

STARTCHAR AE
ENCODING 198
SWIDTH 990 0
DWIDTH 13 0
BBX 12 9 0 0
BITMAP
3FF0
1B30
1B30
3300
3FE0
3300
6330
6330
F7F0
ENDCHAR

STARTCHAR Ccedilla
ENCODING 199
SWIDTH 781 0
DWIDTH 10 0
BBX 8 12 1 -3
BITMAP
3F
63
C1
C0
C0
C0
C1
63
3E
18
0C
38
ENDCHAR

STARTCHAR Egrave
ENCODING 200
SWIDTH 667 0
DWIDTH 9 0
BBX 8 13 0 0
BITMAP
30
18
04
00
FF
63
63
60
7C
60
63
63
FF
ENDCHAR

STARTCHAR Eacute
ENCODING 201
SWIDTH 667 0
DWIDTH 9 0
BBX 8 13 0 0
BITMAP
06
0C
10
00
FF
63
63
60
7C
60
63
63
FF
ENDCHAR

STARTCHAR Ecircumflex
ENCODING 202
SWIDTH 667 0
DWIDTH 9 0
BBX 8 13 0 0
BITMAP
08
1C
36
00
FF
63
63
60
7C
60
63
63
FF
ENDCHAR

STARTCHAR Edieresis
ENCODING 203
SWIDTH 667 0
DWIDTH 9 0
BBX 8 12 0 0
BITMAP
36
36
00
FF
63
63
60
7C
60
63
63
FF
ENDCHAR

STARTCHAR Igrave
ENCODING 204
SWIDTH 427 0
DWIDTH 6 0
BBX 4 13 1 0
BITMAP
C0
60
10
00
F0
60
60
60
60
60
60
60
F0
ENDCHAR

STARTCHAR Iacute
ENCODING 205
SWIDTH 427 0
DWIDTH 6 0
BBX 5 13 1 0
BITMAP
18
30
40
00
F0
60
60
60
60
60
60
60
F0
ENDCHAR

STARTCHAR Icircumflex
ENCODING 206
SWIDTH 427 0
DWIDTH 6 0
BBX 5 13 1 0
BITMAP
20
70
D8
00
F0
60
60
60
60
60
60
60
F0
ENDCHAR

STARTCHAR Idieresis
ENCODING 207
SWIDTH 427 0
DWIDTH 6 0
BBX 5 12 1 0
BITMAP
D8
D8
00
F0
60
60
60
60
60
60
60
F0
ENDCHAR

STARTCHAR Eth
ENCODING 208
SWIDTH 802 0
DWIDTH 10 0
BBX 9 9 0 0
BITMAP
FE00
6300
6180
6180
F980
6180
6180
6300
FE00
ENDCHAR

STARTCHAR Ntilde
ENCODING 209
SWIDTH 792 0
DWIDTH 10 0
BBX 10 12 0 0
BITMAP
1D00
2E00
0000
F3C0
7180
7980
6980
6D80
6580
6780
6380
F180
ENDCHAR

STARTCHAR Ograve
ENCODING 210
SWIDTH 854 0
DWIDTH 11 0
BBX 9 13 1 0
BITMAP
3000
1800
0400
0000
3E00
6300
C180
C180
C180
C180
C180
6300
3E00
ENDCHAR

STARTCHAR Oacute
ENCODING 211
SWIDTH 854 0
DWIDTH 11 0
BBX 9 13 1 0
BITMAP
0600
0C00
1000
0000
3E00
6300
C180
C180
C180
C180
C180
6300
3E00
ENDCHAR

STARTCHAR Ocircumflex
ENCODING 212
SWIDTH 854 0
DWIDTH 11 0
BBX 9 13 1 0
BITMAP
0800
1C00
3600
0000
3E00
6300
C180
C180
C180
C180
C180
6300
3E00
ENDCHAR

STARTCHAR Otilde
ENCODING 213
SWIDTH 854 0
DWIDTH 11 0
BBX 9 12 1 0
BITMAP
1D00
2E00
0000
3E00
6300
C180
C180
C180
C180
C180
6300
3E00
ENDCHAR

STARTCHAR Odieresis
ENCODING 214
SWIDTH 854 0
DWIDTH 11 0
BBX 9 12 1 0
BITMAP
3600
3600
0000
3E00
6300
C180
C180
C180
C180
C180
6300
3E00
ENDCHAR

STARTCHAR multiply
ENCODING 215
SWIDTH 667 0
DWIDTH 9 0
BBX 7 6 1 1
BITMAP
C6
6C
38
38
6C
C6
ENDCHAR

STARTCHAR Oslash
ENCODING 216
SWIDTH 854 0
DWIDTH 11 0
BBX 11 11 0 -1
BITMAP
0060
1FC0
3180
63C0
66C0
64C0
6CC0
78C0
3180
7F00
C000
ENDCHAR

STARTCHAR Ugrave
ENCODING 217
SWIDTH 677 0
DWIDTH 9 0
BBX 9 13 0 0
BITMAP
3000
1800
0400
0000
F780
6300
6300
6300
6300
6300
6300
6300
3E00
ENDCHAR

STARTCHAR Uacute
ENCODING 218
SWIDTH 677 0
DWIDTH 9 0
BBX 9 13 0 0
BITMAP
0600
0C00
1000
0000
F780
6300
6300
6300
6300
6300
6300
6300
3E00
ENDCHAR

STARTCHAR Ucircumflex
ENCODING 219
SWIDTH 677 0
DWIDTH 9 0
BBX 9 13 0 0
BITMAP
0800
1C00
3600
0000
F780
6300
6300
6300
6300
6300
6300
6300
3E00
ENDCHAR

STARTCHAR Udieresis
ENCODING 220
SWIDTH 677 0
DWIDTH 9 0
BBX 9 12 0 0
BITMAP
3600
3600
0000
F780
6300
6300
6300
6300
6300
6300
6300
3E00
ENDCHAR

STARTCHAR Yacute
ENCODING 221
SWIDTH 698 0
DWIDTH 9 0
BBX 10 13 -1 0
BITMAP
0300
0600
0800
0000
F3C0
6180
3300
1E00
0C00
0C00
0C00
0C00
1E00
ENDCHAR

STARTCHAR Thorn
ENCODING 222
SWIDTH 667 0
DWIDTH 9 0
BBX 8 9 0 0
BITMAP
F0
60
7E
63
63
63
7E
60
F0
ENDCHAR

STARTCHAR germandbls
ENCODING 223
SWIDTH 646 0
DWIDTH 8 0
BBX 7 9 0 0
BITMAP
3C
66
66
6C
6E
66
66
66
EC
ENDCHAR

STARTCHAR agrave
ENCODING 224
SWIDTH 583 0
DWIDTH 8 0
BBX 6 10 1 0
BITMAP
C0
60
10
00
70
98
78
D8
D8
6C
ENDCHAR

STARTCHAR aacute
ENCODING 225
SWIDTH 583 0
DWIDTH 8 0
BBX 6 10 1 0
BITMAP
18
30
40
00
70
98
78
D8
D8
6C
ENDCHAR

STARTCHAR acircumflex
ENCODING 226
SWIDTH 583 0
DWIDTH 8 0
BBX 6 10 1 0
BITMAP
20
70
D8
00
70
98
78
D8
D8
6C
ENDCHAR

STARTCHAR atilde
ENCODING 227
SWIDTH 583 0
DWIDTH 8 0
BBX 6 9 1 0
BITMAP
74
B8
00
70
98
78
D8
D8
6C
ENDCHAR

STARTCHAR adieresis
ENCODING 228
SWIDTH 583 0
DWIDTH 8 0
BBX 6 9 1 0
BITMAP
D8
D8
00
70
98
78
D8
D8
6C
ENDCHAR

STARTCHAR aring
ENCODING 229
SWIDTH 583 0
DWIDTH 8 0
BBX 6 10 1 0
BITMAP
20
50
20
00
70
98
78
D8
D8
6C
ENDCHAR

STARTCHAR ae
ENCODING 230
SWIDTH 885 0
DWIDTH 12 0
BBX 10 6 1 0
BITMAP
7F80
8CC0
7FC0
CC00
CCC0
7780
ENDCHAR

STARTCHAR ccedilla
ENCODING 231
SWIDTH 563 0
DWIDTH 7 0
BBX 5 9 1 -3
BITMAP
78
D8
C0
C0
D8
70
20
30
60
ENDCHAR

STARTCHAR egrave
ENCODING 232
SWIDTH 573 0
DWIDTH 7 0
BBX 5 10 1 0
BITMAP
C0
60
10
00
70
D8
F8
C0
D8
70
ENDCHAR

STARTCHAR eacute
ENCODING 233
SWIDTH 573 0
DWIDTH 7 0
BBX 5 10 1 0
BITMAP
18
30
40
00
70
D8
F8
C0
D8
70
ENDCHAR

STARTCHAR ecircumflex
ENCODING 234
SWIDTH 573 0
DWIDTH 7 0
BBX 5 10 1 0
BITMAP
20
70
D8
00
70
D8
F8
C0
D8
70
ENDCHAR

STARTCHAR edieresis
ENCODING 235
SWIDTH 573 0
DWIDTH 7 0
BBX 5 9 1 0
BITMAP
D8
D8
00
70
D8
F8
C0
D8
70
ENDCHAR

STARTCHAR igrave
ENCODING 236
SWIDTH 354 0
DWIDTH 5 0
BBX 4 10 0 0
BITMAP
C0
60
10
00
E0
60
60
60
60
F0
ENDCHAR

STARTCHAR iacute
ENCODING 237
SWIDTH 354 0
DWIDTH 5 0
BBX 4 10 0 0
BITMAP
30
60
80
00
E0
60
60
60
60
F0
ENDCHAR

STARTCHAR icircumflex
ENCODING 238
SWIDTH 354 0
DWIDTH 5 0
BBX 5 10 0 0
BITMAP
20
70
D8
00
E0
60
60
60
60
F0
ENDCHAR

STARTCHAR idieresis
ENCODING 239
SWIDTH 354 0
DWIDTH 5 0
BBX 5 9 0 0
BITMAP
D8
D8
00
E0
60
60
60
60
F0
ENDCHAR

STARTCHAR eth
ENCODING 240
SWIDTH 573 0
DWIDTH 7 0
BBX 6 10 1 0
BITMAP
6C
30
70
18
78
D8
D8
D8
D8
70
ENDCHAR

STARTCHAR ntilde
ENCODING 241
SWIDTH 625 0
DWIDTH 8 0
BBX 8 9 0 0
BITMAP
3A
5C
00
EE
76
66
66
66
F7
ENDCHAR

STARTCHAR ograve
ENCODING 242
SWIDTH 573 0
DWIDTH 7 0
BBX 5 10 1 0
BITMAP
C0
60
10
00
70
D8
D8
D8
D8
70
ENDCHAR

STARTCHAR oacute
ENCODING 243
SWIDTH 573 0
DWIDTH 7 0
BBX 5 10 1 0
BITMAP
18
30
40
00
70
D8
D8
D8
D8
70
ENDCHAR

STARTCHAR ocircumflex
ENCODING 244
SWIDTH 573 0
DWIDTH 7 0
BBX 5 10 1 0
BITMAP
20
70
D8
00
70
D8
D8
D8
D8
70
ENDCHAR

STARTCHAR otilde
ENCODING 245
SWIDTH 573 0
DWIDTH 7 0
BBX 6 9 1 0
BITMAP
74
B8
00
70
D8
D8
D8
D8
70
ENDCHAR

STARTCHAR odieresis
ENCODING 246
SWIDTH 573 0
DWIDTH 7 0
BBX 5 9 1 0
BITMAP
D8
D8
00
70
D8
D8
D8
D8
70
ENDCHAR

STARTCHAR divide
ENCODING 247
SWIDTH 668 0
DWIDTH 9 0
BBX 8 7 0 1
BITMAP
18
18
00
FF
00
18
18
ENDCHAR

STARTCHAR oslash
ENCODING 248
SWIDTH 573 0
DWIDTH 7 0
BBX 6 8 1 -1
BITMAP
04
78
D8
F8
F8
D8
70
80
ENDCHAR

STARTCHAR ugrave
ENCODING 249
SWIDTH 625 0
DWIDTH 8 0
BBX 8 10 0 0
BITMAP
60
30
08
00
EE
66
66
66
6E
77
ENDCHAR

STARTCHAR uacute
ENCODING 250
SWIDTH 625 0
DWIDTH 8 0
BBX 8 10 0 0
BITMAP
06
0C
10
00
EE
66
66
66
6E
77
ENDCHAR

STARTCHAR ucircumflex
ENCODING 251
SWIDTH 625 0
DWIDTH 8 0
BBX 8 10 0 0
BITMAP
10
38
6C
00
EE
66
66
66
6E
77
ENDCHAR

STARTCHAR udieresis
ENCODING 252
SWIDTH 625 0
DWIDTH 8 0
BBX 8 9 0 0
BITMAP
6C
6C
00
EE
66
66
66
6E
77
ENDCHAR

STARTCHAR yacute
ENCODING 253
SWIDTH 594 0
DWIDTH 8 0
BBX 7 13 0 -3
BITMAP
0C
18
20
00
EE
6C
6C
28
38
30
30
60
E0
ENDCHAR

STARTCHAR thorn
ENCODING 254
SWIDTH 625 0
DWIDTH 8 0
BBX 7 12 0 -3
BITMAP
E0
60
60
6C
76
66
66
76
6C
60
60
F0
ENDCHAR

STARTCHAR ydieresis
ENCODING 255
SWIDTH 594 0
DWIDTH 8 0
BBX 7 12 0 -3
BITMAP
6C
6C
00
EE
6C
6C
28
38
30
30
60
E0
ENDCHAR
ENDFONT
